<svg xmlns="http://www.w3.org/2000/svg" width="32px" height="32px"  viewBox="0 0 24 24"><path d="M18.79,15.343c-0.35-0.35-0.79-0.56-1.26-0.61v-4.54c0-1.48-0.58-2.87-1.62-3.91
            c-0.62-0.6-1.36-1.06-2.15-1.33v-0.06c0-0.94-0.71-1.74-1.61-1.81c-0.49-0.04-0.98,0.12-1.34,0.45c-0.36,0.33-0.57,0.8-0.57,1.3
            v0.12c-2.23,0.74-3.77,2.87-3.77,5.24v4.54c-1.06,0.12-1.88,1.02-1.88,2.11v0.53c0,1.17,0.95,2.12,2.12,2.12h3.59
            c0.14,0.81,0.85,1.43,1.7,1.43s1.56-0.62,1.7-1.43h3.59c1.17,0,2.12-0.95,2.12-2.12v-0.53C19.41,16.273,19.19,15.743,18.79,15.343z
            M18.41,17.373c0,0.62-0.5,1.12-1.12,1.12H6.71c-0.62,0-1.12-0.5-1.12-1.12v-0.53c0-0.62,0.5-1.12,1.12-1.12
            c0.42,0,0.76-0.34,0.76-0.77v-4.76c0-1.99,1.33-3.77,3.24-4.34c0.32-0.09,0.53-0.38,0.53-0.71v-0.31c0-0.22,0.09-0.42,0.25-0.56
            c0.14-0.13,0.32-0.2,0.51-0.2h0.07c0.38,0.03,0.69,0.4,0.69,0.82v0.25c0,0.33,0.21,0.62,0.53,0.71c0.71,0.22,1.38,0.61,1.91,1.14
            c0.86,0.85,1.33,1.99,1.33,3.2v4.76c0,0.21,0.08,0.4,0.22,0.55c0.15,0.14,0.33,0.22,0.54,0.22c0.3,0,0.58,0.11,0.79,0.33
            c0.22,0.21,0.33,0.49,0.33,0.79V17.373z"/></svg>