<svg xmlns="http://www.w3.org/2000/svg" width="32px" height="32px"  viewBox="0 0 24 24"><g>
                <path d="M12,18.883c-4.131,0-7.929-2.249-9.675-5.728c-0.361-0.724-0.361-1.587,0-2.31
                    C4.071,7.365,7.869,5.117,12,5.117s7.929,2.249,9.675,5.728v0c0.361,0.723,0.361,1.586,0,2.31
                    C19.929,16.635,16.131,18.883,12,18.883z M12,6.117c-3.756,0-7.203,2.032-8.78,5.176c-0.222,0.442-0.222,0.972,0,1.415
                    c1.577,3.144,5.024,5.176,8.78,5.176s7.203-2.032,8.78-5.176c0.222-0.442,0.222-0.971,0-1.414l0,0
                    C19.203,8.148,15.756,6.117,12,6.117z"/>
                <path d="M12,16.049c-2.232,0-4.049-1.816-4.049-4.049S9.768,7.951,12,7.951S16.049,9.767,16.049,12
                    S14.232,16.049,12,16.049z M12,8.951c-1.681,0-3.049,1.368-3.049,3.049s1.368,3.049,3.049,3.049s3.049-1.368,3.049-3.049
                    S13.681,8.951,12,8.951z"/>
                <circle cx="12" cy="12" r="2.028"/>
            </g></svg>